<svg width="229" height="133" viewBox="0 0 229 133" fill="none" xmlns="http://www.w3.org/2000/svg">
<g clip-path="url(#clip0_3_33)">
<path d="M3.83523 83V48.0909H9.10227V63.2614H26.5057V48.0909H31.7898V83H26.5057V67.7784H9.10227V83H3.83523ZM39.4602 83V48.0909H61.3466V52.625H44.7273V63.2614H60.2045V67.7784H44.7273V78.4659H61.5511V83H39.4602ZM68.3821 48.0909H74.7741L85.8878 75.2273H86.2969L97.4105 48.0909H103.803V83H98.7912V57.7386H98.4673L88.1719 82.9489H84.0128L73.7173 57.7216H73.3935V83H68.3821V48.0909ZM111.46 83V48.0909H133.347V52.625H116.727V63.2614H132.205V67.7784H116.727V78.4659H133.551V83H111.46ZM140.382 83V48.0909H152.825C155.53 48.0909 157.774 48.5568 159.558 49.4886C161.354 50.4205 162.695 51.7102 163.581 53.358C164.467 54.9943 164.911 56.8864 164.911 59.0341C164.911 61.1705 164.462 63.0511 163.564 64.6761C162.678 66.2898 161.337 67.5455 159.541 68.4432C157.757 69.3409 155.513 69.7898 152.808 69.7898H143.382V65.2557H152.331C154.036 65.2557 155.422 65.0114 156.49 64.5227C157.57 64.0341 158.359 63.3239 158.859 62.392C159.359 61.4602 159.609 60.3409 159.609 59.0341C159.609 57.7159 159.354 56.5739 158.842 55.608C158.342 54.642 157.553 53.9034 156.473 53.392C155.405 52.8693 154.001 52.608 152.263 52.608H145.649V83H140.382ZM157.615 67.25L166.24 83H160.24L151.786 67.25H157.615ZM174.268 83H168.678L181.24 48.0909H187.325L199.888 83H194.297L184.428 54.4318H184.155L174.268 83ZM175.206 69.3295H193.342V73.7614H175.206V69.3295Z" fill="#DBD424"/>
<path fill-rule="evenodd" clip-rule="evenodd" d="M221.514 0.290038L177 18.0958V23.0958L219.257 6.19293C220.571 5.66744 222 6.63495 222 8.04988V124.756C222 126.111 220.681 127.074 219.39 126.661L177 113.096V118.096L221.781 132.426C224.362 133.252 227 131.326 227 128.616V4.00395C227 1.17409 224.142 -0.760945 221.514 0.290038Z" fill="#DBD424"/>
<path d="M136.531 91.2756C136.455 90.6032 136.143 90.0824 135.594 89.7131C135.045 89.339 134.353 89.152 133.52 89.152C132.923 89.152 132.407 89.2467 131.972 89.4361C131.536 89.6207 131.197 89.8764 130.956 90.2031C130.719 90.5251 130.601 90.892 130.601 91.304C130.601 91.6496 130.681 91.9479 130.842 92.1989C131.008 92.4498 131.223 92.6605 131.489 92.831C131.759 92.9967 132.047 93.1364 132.355 93.25C132.663 93.3589 132.959 93.4489 133.243 93.5199L134.663 93.8892C135.127 94.0028 135.603 94.1567 136.091 94.3509C136.579 94.545 137.031 94.8007 137.447 95.1179C137.864 95.4351 138.2 95.8281 138.456 96.2969C138.716 96.7656 138.847 97.3267 138.847 97.9801C138.847 98.804 138.634 99.5355 138.207 100.175C137.786 100.814 137.173 101.318 136.368 101.688C135.568 102.057 134.599 102.241 133.463 102.241C132.374 102.241 131.432 102.069 130.636 101.723C129.841 101.377 129.218 100.887 128.768 100.253C128.319 99.6136 128.07 98.8561 128.023 97.9801H130.224C130.267 98.5057 130.438 98.9437 130.736 99.294C131.039 99.6397 131.425 99.8977 131.893 100.068C132.367 100.234 132.885 100.317 133.449 100.317C134.069 100.317 134.621 100.22 135.104 100.026C135.591 99.8267 135.975 99.5521 136.254 99.2017C136.534 98.8466 136.673 98.4323 136.673 97.9588C136.673 97.5279 136.55 97.1752 136.304 96.9006C136.063 96.6259 135.733 96.3987 135.317 96.2188C134.905 96.0388 134.438 95.8802 133.918 95.7429L132.199 95.2741C131.034 94.9569 130.111 94.4905 129.429 93.875C128.752 93.2595 128.413 92.4451 128.413 91.4318C128.413 90.5937 128.641 89.8622 129.095 89.2372C129.55 88.6122 130.165 88.1269 130.942 87.7812C131.718 87.4309 132.594 87.2557 133.57 87.2557C134.554 87.2557 135.423 87.4285 136.176 87.7741C136.934 88.1198 137.53 88.5956 137.966 89.2017C138.402 89.803 138.629 90.4943 138.648 91.2756H136.531ZM140.752 89.3438V87.4545H152.009V89.3438H147.471V102H145.283V89.3438H140.752ZM163.85 87.4545H166.052V97.0213C166.052 98.0393 165.813 98.9413 165.335 99.7273C164.856 100.509 164.184 101.124 163.317 101.574C162.451 102.019 161.435 102.241 160.271 102.241C159.111 102.241 158.097 102.019 157.231 101.574C156.364 101.124 155.692 100.509 155.214 99.7273C154.736 98.9413 154.496 98.0393 154.496 97.0213V87.4545H156.691V96.8438C156.691 97.5019 156.835 98.0866 157.124 98.598C157.418 99.1094 157.832 99.5118 158.367 99.8054C158.902 100.094 159.537 100.239 160.271 100.239C161.009 100.239 161.646 100.094 162.181 99.8054C162.721 99.5118 163.133 99.1094 163.417 98.598C163.706 98.0866 163.85 97.5019 163.85 96.8438V87.4545ZM173.951 102H169.243V87.4545H174.1C175.526 87.4545 176.75 87.7457 177.772 88.3281C178.795 88.9058 179.579 89.7367 180.123 90.821C180.672 91.9006 180.947 93.1955 180.947 94.706C180.947 96.2211 180.67 97.5232 180.116 98.6122C179.567 99.7012 178.771 100.539 177.73 101.126C176.688 101.709 175.429 102 173.951 102ZM171.437 100.082H173.831C174.939 100.082 175.859 99.8741 176.593 99.4574C177.327 99.036 177.877 98.4276 178.241 97.6321C178.606 96.8319 178.788 95.8565 178.788 94.706C178.788 93.5649 178.606 92.5966 178.241 91.8011C177.881 91.0057 177.344 90.402 176.629 89.9901C175.914 89.5781 175.026 89.3722 173.966 89.3722H171.437V100.082ZM185.871 87.4545V102H183.676V87.4545H185.871ZM201.702 94.7273C201.702 96.2803 201.418 97.6155 200.849 98.733C200.281 99.8456 199.502 100.703 198.513 101.304C197.528 101.901 196.408 102.199 195.153 102.199C193.894 102.199 192.769 101.901 191.78 101.304C190.795 100.703 190.018 99.8433 189.45 98.7259C188.882 97.6084 188.598 96.2756 188.598 94.7273C188.598 93.1742 188.882 91.8414 189.45 90.7287C190.018 89.6113 190.795 88.7543 191.78 88.1577C192.769 87.5563 193.894 87.2557 195.153 87.2557C196.408 87.2557 197.528 87.5563 198.513 88.1577C199.502 88.7543 200.281 89.6113 200.849 90.7287C201.418 91.8414 201.702 93.1742 201.702 94.7273ZM199.528 94.7273C199.528 93.5436 199.337 92.5469 198.953 91.7372C198.574 90.9228 198.054 90.3073 197.391 89.8906C196.732 89.4692 195.987 89.2585 195.153 89.2585C194.315 89.2585 193.567 89.4692 192.909 89.8906C192.251 90.3073 191.73 90.9228 191.347 91.7372C190.968 92.5469 190.778 93.5436 190.778 94.7273C190.778 95.911 190.968 96.91 191.347 97.7244C191.73 98.5341 192.251 99.1496 192.909 99.571C193.567 99.9877 194.315 100.196 195.153 100.196C195.987 100.196 196.732 99.9877 197.391 99.571C198.054 99.1496 198.574 98.5341 198.953 97.7244C199.337 96.91 199.528 95.911 199.528 94.7273ZM212.371 91.2756C212.295 90.6032 211.983 90.0824 211.434 89.7131C210.884 89.339 210.193 89.152 209.36 89.152C208.763 89.152 208.247 89.2467 207.811 89.4361C207.376 89.6207 207.037 89.8764 206.796 90.2031C206.559 90.5251 206.441 90.892 206.441 91.304C206.441 91.6496 206.521 91.9479 206.682 92.1989C206.848 92.4498 207.063 92.6605 207.328 92.831C207.598 92.9967 207.887 93.1364 208.195 93.25C208.503 93.3589 208.799 93.4489 209.083 93.5199L210.503 93.8892C210.967 94.0028 211.443 94.1567 211.931 94.3509C212.418 94.545 212.871 94.8007 213.287 95.1179C213.704 95.4351 214.04 95.8281 214.296 96.2969C214.556 96.7656 214.686 97.3267 214.686 97.9801C214.686 98.804 214.473 99.5355 214.047 100.175C213.626 100.814 213.013 101.318 212.208 101.688C211.408 102.057 210.439 102.241 209.303 102.241C208.214 102.241 207.272 102.069 206.476 101.723C205.681 101.377 205.058 100.887 204.608 100.253C204.158 99.6136 203.91 98.8561 203.863 97.9801H206.064C206.107 98.5057 206.277 98.9437 206.576 99.294C206.879 99.6397 207.265 99.8977 207.733 100.068C208.207 100.234 208.725 100.317 209.289 100.317C209.909 100.317 210.461 100.22 210.944 100.026C211.431 99.8267 211.815 99.5521 212.094 99.2017C212.373 98.8466 212.513 98.4323 212.513 97.9588C212.513 97.5279 212.39 97.1752 212.144 96.9006C211.902 96.6259 211.573 96.3987 211.157 96.2188C210.745 96.0388 210.278 95.8802 209.757 95.7429L208.039 95.2741C206.874 94.9569 205.951 94.4905 205.269 93.875C204.592 93.2595 204.253 92.4451 204.253 91.4318C204.253 90.5937 204.48 89.8622 204.935 89.2372C205.39 88.6122 206.005 88.1269 206.782 87.7812C207.558 87.4309 208.434 87.2557 209.409 87.2557C210.394 87.2557 211.263 87.4285 212.016 87.7741C212.774 88.1198 213.37 88.5956 213.806 89.2017C214.241 89.803 214.469 90.4943 214.488 91.2756H212.371Z" fill="#DBD424"/>
</g>
<defs>
<clipPath id="clip0_3_33">
<rect width="229" height="132.619" fill="white"/>
</clipPath>
</defs>
</svg>
