<svg width="247" height="133" viewBox="0 0 247 133" fill="none" xmlns="http://www.w3.org/2000/svg">
<g clip-path="url(#clip0_233_24)">
<g clip-path="url(#clip1_233_24)">
<path d="M6.15483 85V47.1818H11.8608V63.6165H30.7145V47.1818H36.4389V85H30.7145V68.5099H11.8608V85H6.15483ZM44.7486 85V47.1818H68.4588V52.0938H50.4545V63.6165H67.2216V68.5099H50.4545V80.0881H68.6804V85H44.7486ZM76.0806 47.1818H83.0053L95.0451 76.5795H95.4883L107.528 47.1818H114.453V85H109.024V57.6335H108.673L97.5195 84.9446H93.0138L81.8604 57.6151H81.5096V85H76.0806V47.1818Z" fill="#EDB63B"/>
<path d="M122.749 85V47.1818H146.459V52.0938H128.455V63.6165H145.222V68.5099H128.455V80.0881H146.68V85H122.749ZM154.081 85V47.1818H167.561C170.491 47.1818 172.922 47.6866 174.855 48.696C176.8 49.7055 178.252 51.1027 179.213 52.8878C180.173 54.6605 180.653 56.7102 180.653 59.0369C180.653 61.3513 180.167 63.3887 179.194 65.1491C178.234 66.8973 176.781 68.2576 174.836 69.2301C172.904 70.2027 170.472 70.6889 167.542 70.6889H157.331V65.777H167.025C168.872 65.777 170.374 65.5123 171.531 64.983C172.7 64.4536 173.556 63.6842 174.098 62.6747C174.639 61.6652 174.91 60.4527 174.91 59.0369C174.91 57.6089 174.633 56.3717 174.079 55.3253C173.538 54.2789 172.682 53.4787 171.512 52.9247C170.355 52.3584 168.835 52.0753 166.951 52.0753H159.787V85H154.081ZM172.75 67.9375L182.093 85H175.593L166.434 67.9375H172.75ZM190.791 85H184.734L198.343 47.1818H204.936L218.545 85H212.488L201.797 54.0511H201.501L190.791 85ZM191.806 70.1903H211.454V74.9915H191.806V70.1903Z" fill="#FCFCFC"/>
<path d="M54.2114 101V91.7636H60.1284V93.1662H55.8846V95.6738H59.7225V97.0763H55.8846V101H54.2114ZM63.326 91.7636V101H61.6528V91.7636H63.326ZM65.1379 101V91.7636H66.8111V99.5974H70.879V101H65.1379ZM72.3312 91.7636H74.3787L77.1208 98.4564H77.229L79.9711 91.7636H82.0186V101H80.413V94.6545H80.3274L77.7747 100.973H76.5751L74.0225 94.641H73.9368V101H72.3312V91.7636ZM89.6787 101.135C89.0473 101.135 88.5046 101.021 88.0506 100.793C87.5966 100.564 87.2464 100.256 86.9998 99.868C86.7563 99.4771 86.6345 99.0367 86.6345 98.5466C86.6345 98.1768 86.7097 97.8491 86.86 97.5634C87.0133 97.2778 87.2238 97.0132 87.4914 96.7697C87.762 96.5261 88.0747 96.2841 88.4295 96.0436L90.0666 94.9296C90.3071 94.7733 90.489 94.6079 90.6123 94.4335C90.7386 94.2591 90.8017 94.0547 90.8017 93.8202C90.8017 93.6217 90.7175 93.4338 90.5491 93.2564C90.3838 93.079 90.1553 92.9903 89.8636 92.9903C89.6682 92.9903 89.4953 93.0369 89.345 93.1301C89.1977 93.2203 89.0819 93.3391 88.9977 93.4864C88.9165 93.6338 88.8759 93.7901 88.8759 93.9555C88.8759 94.1569 88.9316 94.3614 89.0428 94.5688C89.1571 94.7763 89.3044 94.9913 89.4848 95.2137C89.6682 95.4362 89.8636 95.6723 90.0711 95.9218L94.4051 101H92.6372L89.0383 96.8779C88.7707 96.5652 88.5121 96.257 88.2626 95.9534C88.0161 95.6497 87.8131 95.334 87.6538 95.0063C87.4974 94.6756 87.4192 94.3178 87.4192 93.9329C87.4192 93.497 87.52 93.1076 87.7214 92.7648C87.9228 92.4191 88.204 92.147 88.5648 91.9485C88.9286 91.7501 89.354 91.6509 89.8411 91.6509C90.3282 91.6509 90.7461 91.7471 91.0948 91.9395C91.4436 92.1319 91.7127 92.3875 91.9021 92.7062C92.0915 93.0249 92.1862 93.3722 92.1862 93.748C92.1862 94.184 92.078 94.5748 91.8615 94.9206C91.6451 95.2634 91.3444 95.5745 90.9595 95.8542L89.0924 97.2207C88.7858 97.4432 88.5663 97.6687 88.434 97.8972C88.3017 98.1227 88.2355 98.3151 88.2355 98.4744C88.2355 98.718 88.2972 98.939 88.4204 99.1374C88.5437 99.3358 88.7166 99.4952 88.9391 99.6154C89.1646 99.7327 89.4277 99.7913 89.7283 99.7913C90.0591 99.7913 90.3853 99.7177 90.707 99.5703C91.0287 99.42 91.3218 99.2065 91.5864 98.9299C91.851 98.6533 92.0615 98.3226 92.2178 97.9377C92.3742 97.5499 92.4523 97.1199 92.4523 96.6479H93.8549C93.8549 97.2312 93.7903 97.7393 93.661 98.1723C93.5317 98.6022 93.3648 98.966 93.1604 99.2637C92.9559 99.5583 92.7395 99.7943 92.511 99.9717C92.4388 100.023 92.3697 100.074 92.3035 100.125C92.2374 100.176 92.1682 100.227 92.096 100.278C91.7713 100.573 91.391 100.79 90.955 100.928C90.5221 101.066 90.0966 101.135 89.6787 101.135ZM98.1563 93.1662V91.7636H105.526V93.1662H102.671V101H101.011V93.1662H98.1563ZM108.182 91.7636L110.586 99.0337H110.68L113.08 91.7636H114.92L111.664 101H109.598L106.346 91.7636H108.182Z" fill="#FCFCFC"/>
<path d="M125.118 101V91.7636H128.239C128.964 91.7636 129.556 91.8944 130.016 92.156C130.479 92.4146 130.822 92.7648 131.045 93.2068C131.267 93.6488 131.378 94.1419 131.378 94.6861C131.378 95.2303 131.267 95.7249 131.045 96.1699C130.825 96.6148 130.485 96.9696 130.025 97.2342C129.565 97.4958 128.976 97.6266 128.257 97.6266H126.02V96.6344H128.221C128.717 96.6344 129.116 96.5487 129.416 96.3773C129.717 96.2059 129.935 95.9744 130.07 95.6828C130.209 95.3881 130.278 95.0559 130.278 94.6861C130.278 94.3163 130.209 93.9855 130.07 93.6939C129.935 93.4022 129.716 93.1737 129.412 93.0084C129.108 92.84 128.705 92.7558 128.203 92.7558H126.237V101H125.118ZM133.18 101V91.7636H136.301C137.022 91.7636 137.615 91.8869 138.078 92.1335C138.541 92.377 138.884 92.7122 139.106 93.1392C139.329 93.5661 139.44 94.0517 139.44 94.5959C139.44 95.1401 139.329 95.6226 139.106 96.0436C138.884 96.4645 138.542 96.7952 138.082 97.0358C137.622 97.2733 137.034 97.392 136.319 97.392H133.793V96.3818H136.283C136.776 96.3818 137.173 96.3097 137.473 96.1653C137.777 96.021 137.997 95.8166 138.132 95.552C138.27 95.2844 138.339 94.9657 138.339 94.5959C138.339 94.2261 138.27 93.9029 138.132 93.6262C137.994 93.3496 137.773 93.1362 137.469 92.9858C137.165 92.8325 136.764 92.7558 136.265 92.7558H134.298V101H133.18ZM137.528 96.8509L139.801 101H138.502L136.265 96.8509H137.528ZM149.097 96.3818C149.097 97.356 148.921 98.1978 148.569 98.9074C148.217 99.617 147.735 100.164 147.121 100.549C146.508 100.934 145.807 101.126 145.02 101.126C144.232 101.126 143.531 100.934 142.918 100.549C142.305 100.164 141.822 99.617 141.47 98.9074C141.119 98.1978 140.943 97.356 140.943 96.3818C140.943 95.4077 141.119 94.5658 141.47 93.8563C141.822 93.1467 142.305 92.5995 142.918 92.2146C143.531 91.8298 144.232 91.6374 145.02 91.6374C145.807 91.6374 146.508 91.8298 147.121 92.2146C147.735 92.5995 148.217 93.1467 148.569 93.8563C148.921 94.5658 149.097 95.4077 149.097 96.3818ZM148.014 96.3818C148.014 95.5821 147.881 94.9071 147.613 94.3569C147.348 93.8066 146.989 93.3902 146.535 93.1076C146.084 92.825 145.579 92.6837 145.02 92.6837C144.46 92.6837 143.954 92.825 143.5 93.1076C143.049 93.3902 142.69 93.8066 142.422 94.3569C142.157 94.9071 142.025 95.5821 142.025 96.3818C142.025 97.1816 142.157 97.8566 142.422 98.4068C142.69 98.957 143.049 99.3734 143.5 99.656C143.954 99.9387 144.46 100.08 145.02 100.08C145.579 100.08 146.084 99.9387 146.535 99.656C146.989 99.3734 147.348 98.957 147.613 98.4068C147.881 97.8566 148.014 97.1816 148.014 96.3818ZM153.828 101H150.977V91.7636H153.954C154.85 91.7636 155.617 91.9485 156.254 92.3184C156.891 92.6852 157.38 93.2128 157.72 93.9013C158.059 94.5869 158.229 95.4077 158.229 96.3638C158.229 97.3259 158.058 98.1542 157.715 98.8488C157.372 99.5403 156.873 100.072 156.218 100.445C155.562 100.815 154.766 101 153.828 101ZM152.096 100.008H153.755C154.519 100.008 155.152 99.8605 155.654 99.5658C156.156 99.2712 156.531 98.8518 156.777 98.3076C157.024 97.7634 157.147 97.1154 157.147 96.3638C157.147 95.6181 157.025 94.9762 156.782 94.438C156.538 93.8968 156.174 93.4819 155.69 93.1933C155.206 92.9016 154.603 92.7558 153.882 92.7558H152.096V100.008ZM166.167 91.7636H167.285V97.8791C167.285 98.5105 167.136 99.0743 166.839 99.5703C166.544 100.063 166.128 100.453 165.59 100.738C165.051 101.021 164.42 101.162 163.695 101.162C162.971 101.162 162.339 101.021 161.801 100.738C161.263 100.453 160.845 100.063 160.547 99.5703C160.253 99.0743 160.105 98.5105 160.105 97.8791V91.7636H161.224V97.7889C161.224 98.2399 161.323 98.6413 161.522 98.9931C161.72 99.3418 162.003 99.617 162.369 99.8184C162.739 100.017 163.181 100.116 163.695 100.116C164.21 100.116 164.651 100.017 165.021 99.8184C165.391 99.617 165.674 99.3418 165.869 98.9931C166.068 98.6413 166.167 98.2399 166.167 97.7889V91.7636ZM176.951 94.65H175.833C175.767 94.3283 175.651 94.0457 175.486 93.8021C175.323 93.5586 175.125 93.3541 174.89 93.1888C174.659 93.0204 174.402 92.8941 174.119 92.8099C173.836 92.7258 173.542 92.6837 173.235 92.6837C172.676 92.6837 172.169 92.825 171.715 93.1076C171.264 93.3902 170.905 93.8066 170.637 94.3569C170.373 94.9071 170.24 95.5821 170.24 96.3818C170.24 97.1816 170.373 97.8566 170.637 98.4068C170.905 98.957 171.264 99.3734 171.715 99.656C172.169 99.9387 172.676 100.08 173.235 100.08C173.542 100.08 173.836 100.038 174.119 99.9537C174.402 99.8695 174.659 99.7447 174.89 99.5794C175.125 99.411 175.323 99.205 175.486 98.9615C175.651 98.715 175.767 98.4323 175.833 98.1136H176.951C176.867 98.5857 176.714 99.0081 176.491 99.3809C176.269 99.7538 175.992 100.071 175.661 100.333C175.331 100.591 174.959 100.788 174.547 100.923C174.139 101.059 173.701 101.126 173.235 101.126C172.447 101.126 171.747 100.934 171.133 100.549C170.52 100.164 170.038 99.617 169.686 98.9074C169.334 98.1978 169.158 97.356 169.158 96.3818C169.158 95.4077 169.334 94.5658 169.686 93.8563C170.038 93.1467 170.52 92.5995 171.133 92.2146C171.747 91.8298 172.447 91.6374 173.235 91.6374C173.701 91.6374 174.139 91.705 174.547 91.8403C174.959 91.9756 175.331 92.174 175.661 92.4356C175.992 92.6942 176.269 93.0099 176.491 93.3827C176.714 93.7525 176.867 94.175 176.951 94.65ZM178.253 92.7558V91.7636H185.181V92.7558H182.276V101H181.158V92.7558H178.253ZM188.025 91.7636V101H186.907V91.7636H188.025ZM198.061 96.3818C198.061 97.356 197.885 98.1978 197.533 98.9074C197.182 99.617 196.699 100.164 196.086 100.549C195.472 100.934 194.772 101.126 193.984 101.126C193.196 101.126 192.496 100.934 191.883 100.549C191.269 100.164 190.787 99.617 190.435 98.9074C190.083 98.1978 189.907 97.356 189.907 96.3818C189.907 95.4077 190.083 94.5658 190.435 93.8563C190.787 93.1467 191.269 92.5995 191.883 92.2146C192.496 91.8298 193.196 91.6374 193.984 91.6374C194.772 91.6374 195.472 91.8298 196.086 92.2146C196.699 92.5995 197.182 93.1467 197.533 93.8563C197.885 94.5658 198.061 95.4077 198.061 96.3818ZM196.979 96.3818C196.979 95.5821 196.845 94.9071 196.577 94.3569C196.313 93.8066 195.954 93.3902 195.5 93.1076C195.049 92.825 194.543 92.6837 193.984 92.6837C193.425 92.6837 192.918 92.825 192.464 93.1076C192.013 93.3902 191.654 93.8066 191.386 94.3569C191.122 94.9071 190.99 95.5821 190.99 96.3818C190.99 97.1816 191.122 97.8566 191.386 98.4068C191.654 98.957 192.013 99.3734 192.464 99.656C192.918 99.9387 193.425 100.08 193.984 100.08C194.543 100.08 195.049 99.9387 195.5 99.656C195.954 99.3734 196.313 98.957 196.577 98.4068C196.845 97.8566 196.979 97.1816 196.979 96.3818ZM207.266 91.7636V101H206.184L201.15 93.748H201.06V101H199.942V91.7636H201.024L206.075 99.0337H206.166V91.7636H207.266ZM214.555 94.0727C214.501 93.6157 214.282 93.2609 213.897 93.0084C213.512 92.7558 213.04 92.6295 212.481 92.6295C212.072 92.6295 211.714 92.6957 211.407 92.828C211.104 92.9603 210.866 93.1422 210.695 93.3737C210.526 93.6052 210.442 93.8683 210.442 94.1629C210.442 94.4095 210.501 94.6214 210.618 94.7988C210.738 94.9732 210.892 95.119 211.078 95.2363C211.264 95.3505 211.46 95.4453 211.664 95.5204C211.869 95.5926 212.057 95.6512 212.228 95.6963L213.166 95.9489C213.407 96.012 213.674 96.0992 213.969 96.2104C214.267 96.3217 214.551 96.4735 214.821 96.6659C215.095 96.8554 215.32 97.0989 215.498 97.3966C215.675 97.6942 215.764 98.0595 215.764 98.4925C215.764 98.9916 215.633 99.4426 215.371 99.8455C215.113 100.248 214.734 100.569 214.235 100.806C213.739 101.044 213.136 101.162 212.426 101.162C211.765 101.162 211.192 101.056 210.708 100.842C210.227 100.629 209.848 100.331 209.572 99.9492C209.298 99.5673 209.143 99.1239 209.107 98.6188H210.262C210.292 98.9675 210.409 99.2562 210.613 99.4847C210.821 99.7102 211.082 99.8785 211.398 99.9898C211.717 100.098 212.06 100.152 212.426 100.152C212.853 100.152 213.237 100.083 213.576 99.9447C213.916 99.8034 214.185 99.6079 214.384 99.3584C214.582 99.1058 214.681 98.8112 214.681 98.4744C214.681 98.1678 214.596 97.9182 214.424 97.7258C214.253 97.5334 214.027 97.377 213.748 97.2567C213.468 97.1365 213.166 97.0312 212.841 96.9411L211.705 96.6163C210.983 96.4089 210.412 96.1127 209.991 95.7279C209.57 95.343 209.36 94.8394 209.36 94.217C209.36 93.6999 209.499 93.2489 209.779 92.8641C210.062 92.4762 210.441 92.1755 210.916 91.9621C211.394 91.7456 211.927 91.6374 212.517 91.6374C213.112 91.6374 213.641 91.7441 214.104 91.9576C214.567 92.168 214.934 92.4567 215.205 92.8235C215.478 93.1903 215.622 93.6067 215.638 94.0727H214.555Z" fill="#FCFCFC"/>
<path fill-rule="evenodd" clip-rule="evenodd" d="M203.9 110.116L239.9 130.9C243.1 132.748 247.1 130.439 247.1 126.744V4.80716C247.1 1.11212 243.1 -1.19728 239.9 0.65024L203.9 21.4348V26.885L239.86 6.12358C240.98 5.47694 242.38 6.28523 242.38 7.5785V123.972C242.38 125.266 240.98 126.074 239.86 125.427L203.9 104.666V110.116Z" fill="#EDB63B"/>
</g>
</g>
<defs>
<clipPath id="clip0_233_24">
<rect width="247" height="133" rx="5" fill="white"/>
</clipPath>
<clipPath id="clip1_233_24">
<rect width="247" height="133" fill="white"/>
</clipPath>
</defs>
</svg>
